<svg width="8" height="15" viewBox="0 0 8 15" fill="none" xmlns="http://www.w3.org/2000/svg">
<path d="M5.5 0.000244141H2.5V1.50024H1C0.447715 1.50024 0 2.00392 0 2.62524V13.8752C0 14.4966 0.447715 15.0002 1 15.0002H7C7.55228 15.0002 8 14.4966 8 13.8752V2.62524C8 2.00392 7.55228 1.50024 7 1.50024H5.5V0.000244141Z" fill="#001F35" fill-opacity="0.2"/>
<path d="M6.17902e-06 8.00024C-1.48833e-06 8.58358 1.46004e-07 13.3669 1.46004e-07 13.9502C1.46004e-07 14.5301 0.447715 15.0002 1 15.0002H7C7.55228 15.0002 8 14.5301 8 13.9502C8 13.3669 8 8.58358 8 8.00024H6.17902e-06Z" fill="#001F35"/>
</svg>
