<svg width="278" height="289" viewBox="0 0 278 289" fill="none" xmlns="http://www.w3.org/2000/svg">
<path d="M204.562 264.691L204.563 264.691C205.154 264.416 205.716 264.051 206.255 263.599C206.255 263.599 206.255 263.598 206.255 263.598M204.562 264.691L206.255 263.598M204.562 264.691C202.911 265.457 201.25 265.386 199.809 264.441L200.082 264.022M204.562 264.691L200.082 264.022M206.255 263.598C207.843 262.268 209.222 260.19 210.433 257.511C211.646 254.827 212.707 251.506 213.639 247.652C215.503 239.944 216.865 230.052 217.894 218.758C219.952 196.168 220.681 167.891 221.397 140.092L221.399 140.034C221.953 118.537 222.477 98.2537 223.632 82.89C224.398 72.6972 225.348 66.2853 226.304 62.3193C226.782 60.3355 227.257 58.9821 227.701 58.0799C228.151 57.167 228.543 56.7721 228.819 56.6203L228.82 56.6195C228.881 56.5859 228.911 56.5793 228.947 56.5805C228.993 56.5822 229.105 56.6009 229.313 56.7248L229.313 56.725C230.433 57.3904 231.487 58.7499 232.457 60.792C233.422 62.8225 234.276 65.4673 235.03 68.6212C236.538 74.9277 237.632 83.1984 238.44 92.5C240.057 111.1 240.528 133.743 240.926 152.873L241.425 152.863M206.255 263.598L241.425 152.863M241.425 152.863L240.926 152.873C241.256 168.718 241.563 181.566 242.183 191.003C242.493 195.721 242.882 199.6 243.394 202.581C243.902 205.535 244.543 207.693 245.407 208.895C246.19 209.983 247.03 210.53 247.824 210.747C248.612 210.963 249.301 210.839 249.761 210.683L249.762 210.683C251.007 210.259 252.136 208.971 253.167 207.207C254.214 205.416 255.223 203.024 256.184 200.223C258.107 194.619 259.86 187.299 261.332 179.683C264.274 164.463 266.112 147.956 265.911 141.451C265.883 140.529 265.114 139.802 264.194 139.829C263.27 139.855 262.548 140.627 262.577 141.551M241.425 152.863L262.577 141.551M200.082 264.022L199.809 264.441C198.623 263.663 197.638 262.297 196.808 260.445C195.974 258.585 195.274 256.188 194.687 253.285C193.513 247.478 192.774 239.575 192.346 229.744C191.489 210.078 191.874 182.609 192.544 148.576C193.123 119.177 193.74 87.8378 192.829 62.9186C192.374 50.4573 191.537 39.6205 190.127 31.4427C189.422 27.3528 188.576 23.9463 187.572 21.3412C186.561 18.7194 185.417 16.9853 184.164 16.1435L184.442 15.7276L184.164 16.1434C183.773 15.8809 183.507 15.8099 183.335 15.7999C183.17 15.7904 183.043 15.834 182.915 15.9011C182.407 16.1676 181.752 16.8657 181.033 18.4202C180.32 19.9605 179.574 22.2739 178.84 25.6641C177.371 32.4422 175.964 43.4463 174.923 60.9984C173.393 86.7886 172.928 120.675 172.479 153.462L172.478 153.524C172.041 185.402 171.588 218.375 170.14 242.845L169.641 242.816L170.14 242.845C169.057 261.125 167.585 271.771 165.954 277.971C164.332 284.139 162.505 286.094 160.546 286.631L160.546 286.631M200.082 264.022L160.546 286.631M160.546 286.631C159.431 286.937 158.321 286.701 157.362 285.982L160.546 286.631ZM88.363 27.9865C88.2769 27.9753 88.1861 27.9722 88.0759 28.0026C87.9642 28.0333 87.8016 28.1072 87.5919 28.295L87.5862 28.2999C86.7526 29.0238 85.949 30.5251 85.2097 32.8163C84.4779 35.0842 83.8338 38.0434 83.2677 41.5907C82.1357 48.6835 81.3241 58.0688 80.729 68.8528C79.5391 90.4181 79.2177 117.519 78.9165 142.939L78.9162 142.959C78.5988 169.753 78.2703 197.476 77.002 218.067C76.0515 233.507 74.7147 242.512 73.213 247.768C71.7162 253.006 70.0064 254.687 68.1773 255.153L68.1771 255.153C66.9594 255.463 65.7549 255.199 64.7177 254.418L88.363 27.9865ZM88.363 27.9865C88.686 28.0293 89.2417 28.3104 89.9489 29.4622M88.363 27.9865L89.9489 29.4622M27.2595 187.844C26.4338 187.88 25.5032 187.695 24.5125 186.956C23.538 186.229 22.5297 184.983 21.4888 182.947C19.4094 178.878 17.1289 171.507 14.777 158.319C12.3015 144.439 10.8949 130.337 10.8377 129.764L10.836 129.747L10.8359 129.745C10.7455 128.825 11.4165 128.008 12.3348 127.919L12.3349 127.919C13.2521 127.831 14.067 128.506 14.1565 129.423L14.1579 129.438C14.2143 130.003 15.6101 143.994 18.0627 157.746C20.155 169.474 22.1139 176.133 23.7101 179.889C24.5081 181.767 25.2069 182.899 25.7708 183.572C26.0902 183.954 26.3589 184.18 26.5701 184.313C26.6467 184.083 26.726 183.789 26.806 183.426C26.9454 182.793 27.0784 181.991 27.2054 181.041C27.4594 179.143 27.6855 176.681 27.8925 173.847C28.3065 168.179 28.6417 161.056 28.9718 154.039C29.9488 133.275 31.0596 114.243 33.266 100.256C34.3686 93.2658 35.75 87.4991 37.5423 83.3959C39.3207 79.3246 41.5835 76.7154 44.5432 76.3958C45.685 76.2722 46.7851 76.6591 47.716 77.4683L47.3888 77.8466L47.7161 77.4684C48.6763 78.3034 49.4974 79.6748 50.2168 81.4516C50.9403 83.2384 51.5801 85.4845 52.1509 88.1194C53.2926 93.3897 54.1697 100.27 54.8735 108.26C56.2812 124.241 57.0008 144.726 57.74 165.775L57.7408 165.8C58.4131 184.921 59.1296 205.298 60.4652 221.49C61.1334 229.591 61.9554 236.628 63.0008 241.93C63.5238 244.582 64.0996 246.784 64.7337 248.462C65.3757 250.16 66.0484 251.24 66.7169 251.743C66.8614 251.852 66.9695 251.901 67.056 251.921C67.1378 251.941 67.2284 251.942 67.3506 251.911L27.2595 187.844ZM27.2595 187.844C27.6996 187.825 28.1127 187.688 28.483 187.391M27.2595 187.844L28.483 187.391M114.655 283.771C114.491 283.645 114.235 283.366 113.916 282.758C113.446 281.863 112.883 280.339 112.276 277.79C111.063 272.696 109.7 263.608 108.514 247.502C106.893 225.467 105.948 196.625 104.947 166.073C103.525 122.695 102.195 87.7923 99.9185 63.5607C98.7808 51.4486 97.4046 41.9756 95.6545 35.4352C94.7801 32.1677 93.8044 29.6004 92.6993 27.7958C91.5993 25.9995 90.3149 24.8706 88.7955 24.6693C87.5783 24.5079 86.3875 24.8913 85.397 25.7718C85.3967 25.7721 85.3963 25.7724 85.396 25.7727L85.7273 26.1471L114.655 283.771ZM114.655 283.771C114.792 283.615 115.022 283.281 115.309 282.6C115.891 281.219 116.674 278.502 117.447 273.204L117.447 273.204C118.452 266.318 119.261 256.486 119.919 243.136C121.143 218.244 121.62 185.761 122.126 151.358L122.126 151.355C122.766 107.893 123.45 71.814 124.952 45.9752C125.703 33.0576 126.659 22.6831 127.919 15.219C128.549 11.4884 129.257 8.46651 130.062 6.21099C130.856 3.98479 131.779 2.39687 132.908 1.67528L132.909 1.67459C133.894 1.04895 135.038 0.97271 136.103 1.45696C137.388 2.04055 138.454 3.45403 139.372 5.48625C140.298 7.53822 141.116 10.3173 141.845 13.777C143.303 20.6995 144.426 30.4355 145.328 42.7335C147.134 67.3342 148.066 102.269 149.025 145.631C149.712 176.657 150.444 209.739 151.954 235.776C152.71 248.796 153.659 260.041 154.892 268.381C155.508 272.553 156.194 275.983 156.957 278.538C157.338 279.816 157.735 280.862 158.146 281.669C158.56 282.483 158.97 283.013 159.356 283.303L159.357 283.303C159.476 283.393 159.542 283.41 159.567 283.415C159.588 283.419 159.61 283.419 159.663 283.405C159.947 283.326 160.441 282.996 161.052 281.856C161.657 280.728 162.331 278.887 163.017 275.952C164.389 270.085 165.783 259.948 166.808 242.642C168.254 218.238 168.706 185.291 169.142 153.411L169.642 153.418L169.142 153.411C169.7 112.724 170.336 78.9325 172.009 54.696C172.846 42.5799 173.943 32.831 175.425 25.7945C176.166 22.2774 177.007 19.4172 177.97 17.2707C178.925 15.1404 180.036 13.6334 181.364 12.9373C181.364 12.9371 181.364 12.937 181.364 12.9369L181.595 13.3805C182.504 12.9028 183.961 12.5852 185.74 13.7808M114.655 283.771L195.38 148.654L195.38 148.638L195.38 148.629C196.663 83.4731 197.875 21.9325 185.74 13.7808M185.74 13.7808L186.018 13.3649M185.74 13.7808L186.018 13.365C186.018 13.3649 186.018 13.3649 186.018 13.3649M186.018 13.3649C187.65 14.4613 189.007 16.4161 190.149 19.0433C191.294 21.6791 192.246 25.0449 193.036 29.0305C194.616 37.0027 195.564 47.5265 196.091 59.8098C197.145 84.3738 196.521 116.059 195.88 148.626L195.879 148.647L195.879 148.654C195.356 175.23 194.825 202.24 195.436 223.271C195.742 233.789 196.334 242.794 197.351 249.494C197.86 252.845 198.473 255.601 199.203 257.674C199.941 259.771 200.765 261.073 201.633 261.642C201.8 261.752 201.976 261.837 202.195 261.862C202.414 261.887 202.722 261.856 203.157 261.654C204.527 261.018 205.821 259.513 207.018 257.139C208.209 254.778 209.268 251.629 210.209 247.817C212.091 240.196 213.482 230.004 214.535 218.346C216.642 195.034 217.394 165.943 218.063 140.001C218.719 114.542 219.331 93.9474 220.584 79.2703C221.211 71.9336 222 66.0531 223.041 61.7743C223.562 59.6353 224.15 57.8771 224.823 56.5306C225.493 55.1919 226.272 54.2068 227.204 53.6895L227.205 53.6891C228.049 53.2229 229.402 52.8905 231.012 53.8471L230.757 54.2778L231.012 53.8472C232.509 54.737 233.792 56.3106 234.904 58.4016C236.02 60.4977 236.984 63.1543 237.825 66.2646C239.505 72.4855 240.703 80.5894 241.58 89.811C243.335 108.255 243.814 131.258 244.262 152.799L244.262 152.808C244.532 165.768 244.794 178.355 245.35 188.206C245.628 193.132 245.979 197.362 246.44 200.607C246.67 202.229 246.926 203.595 247.211 204.674C247.5 205.766 247.806 206.514 248.112 206.94C248.418 207.365 248.607 207.48 248.674 207.508C248.68 207.511 248.685 207.512 248.689 207.514M186.018 13.3649L248.689 207.514M248.689 207.514C248.934 207.43 249.244 207.202 249.608 206.764C249.968 206.332 250.348 205.734 250.742 204.977C251.531 203.463 252.35 201.373 253.172 198.847C254.814 193.798 256.449 187.076 257.885 179.905C260.76 165.551 262.821 149.491 262.577 141.551M248.689 207.514L262.577 141.551M134.729 4.50341L134.73 4.50385C135.156 4.6973 135.752 5.30731 136.429 6.83091C137.096 8.33137 137.803 10.6276 138.511 14.0386C139.927 20.8573 141.334 32.0478 142.477 50.0453C144.16 76.5437 144.938 111.693 145.69 145.701C146.609 187.234 147.491 220.732 149.137 244.591C149.96 256.519 150.975 266.055 152.285 272.989C152.94 276.455 153.671 279.287 154.496 281.449C155.315 283.594 156.252 285.151 157.362 285.982L134.729 4.50341ZM134.729 4.50341C134.721 4.49981 134.714 4.49684 134.708 4.49441C134.705 4.49637 134.702 4.49856 134.698 4.50101C134.306 4.75367 133.761 5.47014 133.153 7.13551C132.555 8.77574 131.926 11.2462 131.302 14.8726C130.054 22.1225 128.836 33.923 127.89 52.7888C126.507 80.3969 125.976 116.488 125.463 151.403L125.463 151.408C124.873 191.507 124.284 223.872 123.057 246.871C122.443 258.369 121.669 267.542 120.653 274.175C120.145 277.491 119.574 280.188 118.927 282.23C118.288 284.247 117.548 285.716 116.644 286.474L116.644 286.474M134.729 4.50341L116.644 286.474M116.644 286.474L116.633 286.483M116.644 286.474L116.633 286.483M116.633 286.483L116.529 286.565L116.53 286.565M116.633 286.483L116.53 286.565M116.53 286.565L116.52 286.572M116.53 286.565L116.52 286.572M116.52 286.572C115.754 287.15 114.861 287.343 113.96 287.097M116.52 286.572L113.96 287.097M45.5319 79.995L45.5323 79.9953C46.2069 80.5819 46.8738 81.7402 47.5054 83.4884C48.1305 85.2188 48.6977 87.459 49.2127 90.1354C50.2423 95.4867 51.0525 102.525 51.7118 110.595C53.03 126.732 53.74 146.934 54.406 165.888C55.2838 190.87 56.1365 211.662 57.6089 226.84C58.345 234.428 59.2377 240.632 60.3714 245.263C60.9382 247.579 61.5688 249.516 62.2777 251.043C62.9835 252.563 63.7855 253.717 64.7176 254.418L45.5319 79.995ZM45.5319 79.995C45.3456 79.8327 45.2074 79.768 45.1178 79.7407M45.5319 79.995L45.1178 79.7407M113.96 287.097C112.198 286.617 110.642 284.826 109.209 279.301M113.96 287.097L109.209 279.301M109.209 279.301C107.765 273.732 106.396 264.167 105.188 247.744M109.209 279.301L105.188 247.744M105.188 247.744C103.561 225.636 102.613 196.747 101.612 166.178M105.188 247.744L101.612 166.178M101.612 166.178C100.512 132.61 99.3748 97.9152 97.2492 71.5988M101.612 166.178L97.2492 71.5988M97.2492 71.5988C95.7286 52.7715 93.9455 41.8626 92.28 35.6351M97.2492 71.5988L92.28 35.6351M92.28 35.6351C91.4466 32.5187 90.6501 30.6042 89.9489 29.4622M92.28 35.6351L89.9489 29.4622M45.1178 79.7407C45.0313 79.7144 44.9652 79.7151 44.9053 79.7216M45.1178 79.7407L44.9053 79.7216M44.9053 79.7216C43.9188 79.8292 42.9501 80.5278 42.0084 81.8941M44.9053 79.7216L42.0084 81.8941M42.0084 81.8941C41.0708 83.2544 40.2138 85.2019 39.4353 87.6395M42.0084 81.8941L39.4353 87.6395M39.4353 87.6395C37.8797 92.5103 36.6743 99.2181 35.7239 106.786M39.4353 87.6395L35.7239 106.786M35.7239 106.786C33.824 121.915 32.9553 140.372 32.3044 154.201M35.7239 106.786L32.3044 154.201M32.3044 154.201L32.3043 154.202M32.3044 154.201L32.3043 154.202M32.3043 154.202C31.665 167.793 31.2101 176.079 30.5686 180.982M32.3043 154.202L30.5686 180.982M30.5686 180.982C30.249 183.424 29.8771 185.082 29.3854 186.147M30.5686 180.982L29.3854 186.147M29.3854 186.147C29.137 186.685 28.8441 187.103 28.483 187.391M29.3854 186.147L28.483 187.391M73.6721 217.857L74.1705 217.887L67.3511 251.911C67.5937 251.848 68.0267 251.585 68.5679 250.644C69.1045 249.71 69.7064 248.179 70.3184 245.726C71.5416 240.824 72.7803 232.344 73.6721 217.857Z" fill="white" stroke="white"/>
<path d="M175.511 234.162C174.009 235.42 172.158 235.976 170.283 235.728C165.077 235.038 163.127 229.075 161.905 223.332C160.831 218.282 159.938 211.222 159.174 201.749C157.782 184.493 157.042 161.859 156.327 139.972C155.765 122.736 155.231 106.407 154.412 93.0294C154.398 93.3545 154.384 93.6824 154.37 94.0151C153.709 109.596 153.421 128.973 153.117 149.488C152.781 172.235 152.432 195.757 151.525 213.815C150.003 244.11 147.441 248.067 144.252 250.095C142.467 251.229 140.336 251.376 138.404 250.499C131.104 247.182 129.399 231.727 127.67 153.221C127.225 132.983 126.764 112.056 125.852 95.8238C125.513 89.7723 125.137 84.9519 124.757 81.1124C124.437 84.5715 124.131 88.8324 123.864 94.0791C123.089 109.345 122.817 129.073 122.553 148.152C122.257 169.527 121.952 191.631 120.947 208.539C119.403 234.525 116.778 240.679 112.471 242.94C110.208 244.129 107.625 243.947 105.382 242.441C101.082 239.553 98.0197 232.587 97.0492 207.981C96.4074 191.702 96.8162 171.06 97.2115 151.098C97.5546 133.767 97.8785 117.397 97.5444 104.242C97.31 95.0136 96.7765 89.3543 96.2306 85.8899C95.1732 89.519 93.9286 95.8923 92.9474 107.053C91.6623 121.665 91.1982 139.587 90.7499 156.918C89.5958 201.477 88.6605 213.145 82.7486 216.412C80.7553 217.515 78.3523 217.453 76.3212 216.246C68.3351 211.5 66.6666 192.404 65.7587 148.558C65.6299 142.327 65.4859 135.392 65.2378 129.437C64.9383 130.85 64.6323 132.394 64.323 134.078C62.7724 142.529 61.6922 151.82 61.8111 155.689C61.897 158.493 59.7005 160.832 56.9044 160.913C54.1076 160.994 51.7717 158.786 51.6855 155.981C51.5295 150.902 52.8281 139.992 54.773 130.039C58.5446 110.739 61.8367 108.115 64.8848 107.08C67.0062 106.359 70.0492 106.668 72.2252 109.692C74.9298 113.453 75.3568 122.751 75.8873 148.366C76.1482 160.982 76.4444 175.281 77.4228 186.849C77.8252 191.605 78.2984 195.289 78.7809 198.138C78.9769 196.196 79.1694 193.893 79.3488 191.163C79.9765 181.588 80.2904 169.467 80.6226 156.635C81.0942 138.415 81.5821 119.575 83.0198 104.339C84.9501 83.8894 87.9942 74.8594 93.8765 72.1266C96.207 71.0453 98.7374 71.2077 100.819 72.5728C104.598 75.0511 106.919 80.6062 107.604 101.666C108.051 115.409 107.705 132.852 107.34 151.32C106.96 170.502 106.567 190.339 107.115 206.08C107.478 216.504 108.21 223.088 108.959 227.237C109.664 222.868 110.416 215.963 110.995 205.059C111.859 188.799 112.146 168.053 112.424 147.99C113.455 73.3519 115.056 59.8418 123.114 57.6334C125.006 57.1148 127.012 57.507 128.618 58.7092C132.108 61.3229 134.29 67.5382 135.826 92.8548C136.843 109.626 137.329 131.684 137.798 153.016C138.253 173.695 138.724 195.076 139.676 211.757C139.98 217.091 140.313 221.495 140.652 225.13C140.969 221.172 141.275 216.316 141.547 210.358C142.342 192.909 142.671 170.748 142.988 149.316C143.311 127.533 143.616 106.957 144.37 90.8405C145.629 63.9297 147.658 60.3931 150.394 58.3279C151.873 57.2115 153.731 56.8463 155.491 57.3255C162.745 59.3018 164.18 70.0741 166.453 139.658C167.105 159.649 167.781 180.32 168.951 196.732C169.593 205.734 170.297 212.045 170.961 216.47C171.378 212.984 171.785 208.331 172.117 202.124C172.842 188.611 173.048 171.438 173.246 154.83C173.455 137.353 173.672 119.28 174.503 105.794C175.712 86.1822 177.831 79.4447 183.228 78.0713C185.196 77.5694 187.193 77.9795 188.85 79.2267C194.638 83.5825 195.72 99.3074 197.14 139.836C197.572 152.155 198.018 164.894 198.812 174.919C199.198 179.79 199.622 183.375 200.028 186.007C200.546 183.648 201.089 180.454 201.586 176.139C202.619 167.169 203.115 156.647 203.553 147.365C203.835 141.393 204.077 136.234 204.422 132.383C204.621 130.152 204.838 128.546 205.102 127.328C206.129 122.6 209.006 121.775 210.629 121.704C217.409 121.409 220.329 130.089 222.842 144.19C224.504 153.51 225.408 162.693 225.445 163.079C225.718 165.872 223.683 168.352 220.898 168.62C218.114 168.888 215.636 166.841 215.363 164.049C215.356 163.979 214.717 157.49 213.564 150.119C212.167 178.89 210.522 195.082 204.305 200.292C203.064 201.332 201.642 201.933 200.002 202.111C198.166 202.31 196.355 201.723 194.901 200.458C192.176 198.089 190.212 193.381 188.84 177.256C187.947 166.746 187.473 153.237 187.015 140.173C186.584 127.855 186.139 115.117 185.344 105.093C185.232 103.669 185.116 102.354 184.998 101.142C184.789 103.636 184.59 106.56 184.415 109.985C183.762 122.732 183.566 139.121 183.376 154.971C183.168 172.372 182.953 190.364 182.14 204.361C180.916 225.448 178.735 231.364 175.613 234.075L175.511 234.162Z" fill="#DBE8F0"/>
<path d="M186.732 239.672L186.733 239.672C187.197 239.456 187.637 239.169 188.058 238.816C188.058 238.816 188.058 238.816 188.058 238.816M186.732 239.672L188.058 238.816M186.732 239.672C185.431 240.275 184.112 240.222 182.968 239.472L183.241 239.053M186.732 239.672L183.241 239.053M188.058 238.816C189.297 237.778 190.365 236.163 191.299 234.098C192.236 232.027 193.053 229.467 193.77 226.502C195.204 220.571 196.251 212.965 197.042 204.285C198.623 186.923 199.183 165.193 199.734 143.835L199.735 143.792C200.161 127.273 200.563 111.692 201.451 99.8901C202.039 92.0609 202.768 87.1416 203.501 84.1034C203.867 82.5835 204.229 81.5528 204.566 80.8702C204.907 80.1771 205.195 79.8989 205.376 79.7991L205.378 79.7983C205.399 79.7867 205.408 79.7838 205.41 79.7832C205.41 79.783 205.411 79.7826 205.415 79.7828C205.425 79.7832 205.492 79.7884 205.641 79.8775L205.642 79.8777C206.472 80.3715 207.27 81.3911 208.011 82.9526C208.748 84.5026 209.402 86.526 209.98 88.9453C211.137 93.7825 211.977 100.13 212.598 107.275C213.84 121.562 214.202 138.955 214.508 153.655L215.007 153.644M188.058 238.816L215.007 153.644M215.007 153.644L214.508 153.655C214.761 165.828 214.997 175.703 215.473 182.957C215.711 186.583 216.011 189.568 216.405 191.864C216.795 194.134 217.291 195.816 217.972 196.764C218.586 197.617 219.252 198.056 219.893 198.231C220.527 198.405 221.08 198.305 221.448 198.18L221.449 198.18C222.449 197.839 223.334 196.816 224.128 195.457C224.938 194.072 225.717 192.226 226.456 190.071C227.936 185.757 229.284 180.127 230.415 174.274C232.676 162.577 234.09 149.884 233.936 144.873C233.912 144.1 233.269 143.492 232.498 143.514C231.724 143.535 231.118 144.183 231.142 144.956C231.33 151.043 229.748 163.372 227.54 174.399C226.437 179.907 225.182 185.067 223.922 188.94C223.291 190.878 222.665 192.477 222.063 193.632C221.762 194.209 221.474 194.661 221.205 194.985C220.955 195.286 220.748 195.442 220.593 195.508C220.54 195.475 220.42 195.379 220.238 195.126C220.016 194.817 219.785 194.259 219.564 193.423C219.346 192.601 219.15 191.556 218.974 190.311C218.621 187.823 218.351 184.577 218.138 180.793C217.711 173.227 217.509 163.558 217.302 153.6L217.302 153.591C216.957 137.042 216.589 119.364 215.241 105.188C214.566 98.1005 213.645 91.8664 212.352 87.0772C211.705 84.6827 210.961 82.6325 210.098 81.0114C209.239 79.3956 208.241 78.1659 207.065 77.467L206.81 77.8976L207.065 77.4669C205.785 76.7068 204.701 76.97 204.025 77.3437L204.024 77.3441C203.278 77.758 202.666 78.5389 202.147 79.5766C201.625 80.6221 201.17 81.9823 200.769 83.63C199.967 86.9265 199.36 91.4518 198.879 97.0905C197.915 108.372 197.445 124.199 196.94 143.759C196.426 163.693 195.849 186.04 194.231 203.948C193.422 212.903 192.354 220.727 190.91 226.574C190.188 229.499 189.376 231.908 188.467 233.711C187.551 235.528 186.572 236.655 185.555 237.128C185.236 237.276 185.021 237.294 184.878 237.278C184.734 237.261 184.616 237.206 184.496 237.127C183.863 236.712 183.24 235.744 182.674 234.136C182.117 232.553 181.648 230.444 181.257 227.872C180.476 222.732 180.022 215.818 179.787 207.738C179.317 191.582 179.726 170.832 180.127 150.411L180.128 150.408L180.128 150.388C180.621 125.368 181.1 101.02 180.29 82.143C179.885 72.7035 179.157 64.6106 177.941 58.4765C177.333 55.4099 176.599 52.8149 175.715 50.7792C174.834 48.7521 173.78 47.2266 172.499 46.3663M215.007 153.644L40.5021 135.624L40.5032 135.634C40.5464 136.068 41.6185 146.814 43.5022 157.376C45.1092 166.384 46.6124 171.49 47.8338 174.364C48.4444 175.801 48.976 176.66 49.3993 177.165C49.5775 177.378 49.7324 177.524 49.8617 177.623C49.9043 177.478 49.9484 177.305 49.9931 177.102C50.0992 176.62 50.2009 176.008 50.2983 175.28C50.493 173.824 50.6665 171.935 50.8255 169.759C51.1435 165.406 51.401 159.935 51.6546 154.543C52.4053 138.59 53.2588 123.961 54.9553 113.206C55.8029 107.833 56.8661 103.39 58.2493 100.224C59.6186 97.0891 61.3812 95.0291 63.7221 94.7765C64.6352 94.6776 65.5116 94.9882 66.2479 95.6282L65.9207 96.0065L66.248 95.6283C67.0062 96.2876 67.6455 97.3613 68.2008 98.7327C68.7601 100.114 69.2533 101.847 69.6927 103.875C70.5714 107.931 71.2458 113.224 71.7867 119.364C72.8686 131.646 73.4216 147.389 73.9895 163.561L73.9901 163.577C74.5067 178.271 75.0571 193.925 76.0831 206.364C76.5964 212.586 77.2275 217.988 78.0295 222.056C78.4307 224.09 78.8717 225.775 79.3557 227.056C79.8476 228.357 80.355 229.16 80.841 229.526C80.9432 229.603 81.0119 229.631 81.0586 229.642C81.1008 229.652 81.1513 229.655 81.2298 229.635C81.3721 229.598 81.6839 229.428 82.0932 228.716C82.4978 228.012 82.9571 226.847 83.4262 224.967C84.3634 221.211 85.3146 214.704 85.9997 203.575L86.4981 203.605L85.9997 203.575C86.9692 187.83 87.2214 166.585 87.4654 146.018L87.4658 145.984C87.722 124.355 87.9713 103.307 88.9594 86.9706C89.4533 78.8035 90.1328 71.7973 91.0937 66.4771C91.574 63.8176 92.1272 61.5647 92.7689 59.7925C93.4048 58.0362 94.1489 56.6898 95.0484 55.9074C95.8324 55.2111 96.7798 54.9046 97.7503 55.0332C98.9686 55.1947 99.9806 56.0976 100.833 57.4898C101.691 58.8902 102.444 60.8751 103.117 63.39C104.464 68.4251 105.522 75.7116 106.397 85.0191C108.146 103.641 109.168 130.463 110.261 163.791C111.03 187.266 111.756 209.423 113.001 226.351C113.912 238.724 114.959 245.699 115.888 249.604C116.354 251.558 116.784 252.719 117.139 253.394C117.326 253.751 117.48 253.949 117.589 254.059C117.688 253.923 117.829 253.686 118 253.281C118.441 252.234 119.041 250.157 119.634 246.091L119.634 246.091C120.406 240.805 121.028 233.256 121.533 223C122.473 203.876 122.84 178.919 123.229 152.484L123.229 152.484C123.72 119.091 124.246 91.3677 125.4 71.5117C125.977 61.5855 126.712 53.6092 127.681 47.8678C128.165 44.9986 128.711 42.6692 129.333 40.927C129.944 39.214 130.663 37.9602 131.566 37.3832L131.567 37.3825C132.357 36.8807 133.278 36.8196 134.131 37.2076C135.158 37.6741 135.992 38.7934 136.7 40.3613C137.417 41.9489 138.047 44.0934 138.608 46.7552C139.73 52.0819 140.593 59.5689 141.287 69.0191C142.674 87.9244 143.39 114.769 144.128 148.085C144.655 171.924 145.218 197.34 146.378 217.343C146.958 227.346 147.687 235.982 148.634 242.385C149.107 245.588 149.633 248.217 150.217 250.172C150.509 251.15 150.812 251.947 151.123 252.558C151.438 253.177 151.742 253.567 152.019 253.774L152.019 253.774C152.06 253.805 152.089 253.821 152.107 253.829C152.111 253.831 152.114 253.832 152.117 253.834C152.121 253.835 152.124 253.836 152.126 253.837C152.128 253.837 152.129 253.838 152.13 253.838C152.13 253.838 152.13 253.838 152.131 253.838C152.133 253.838 152.14 253.837 152.155 253.833C152.327 253.785 152.687 253.565 153.151 252.7C153.609 251.846 154.124 250.443 154.65 248.192C155.701 243.694 156.773 235.913 157.56 222.619C158.67 203.871 159.018 178.56 159.353 154.064C159.782 122.803 160.27 96.8367 161.556 78.211C162.199 68.9003 163.043 61.4034 164.183 55.9888C164.753 53.2827 165.401 51.0761 166.146 49.4161C166.883 47.7723 167.75 46.5846 168.805 46.0313C168.805 46.0312 168.806 46.0311 168.806 46.031L169.037 46.4746C169.735 46.1075 170.854 45.8636 172.221 46.7822M183.241 239.053L182.968 239.472C182.03 238.857 181.262 237.784 180.62 236.351C179.974 234.912 179.435 233.061 178.982 230.826C178.078 226.355 177.51 220.276 177.181 212.72C176.523 197.606 176.819 176.496 177.334 150.349C177.778 127.759 178.252 103.683 177.553 84.541C177.203 74.9681 176.56 66.6478 175.478 60.3723C174.937 57.2335 174.289 54.6245 173.521 52.6329C172.746 50.6248 171.878 49.3203 170.946 48.6938L171.224 48.2779L170.946 48.6938C170.657 48.5001 170.473 48.4554 170.367 48.4493C170.268 48.4436 170.191 48.4685 170.104 48.514C169.748 48.7009 169.259 49.2087 168.71 50.3955C168.167 51.5681 167.596 53.3364 167.033 55.9371C165.906 61.1364 164.825 69.5843 164.026 83.0681C162.85 102.881 162.493 128.914 162.148 154.106L162.147 154.155C161.811 178.647 161.464 203.984 160.35 222.788L159.852 222.759L160.35 222.788C159.518 236.835 158.387 245.024 157.131 249.8C155.884 254.542 154.465 256.105 152.894 256.536L152.894 256.536L183.241 239.053ZM97.3876 57.812C97.5846 57.838 97.9865 58.0182 98.5228 58.8917C99.053 59.7552 99.6615 61.2139 100.301 63.6037C101.578 68.3783 102.947 76.7517 104.115 91.2154C105.748 111.432 106.622 138.086 107.467 163.879C108.236 187.366 108.964 209.565 110.215 226.554C111.143 239.173 112.195 246.532 113.308 250.821C114.409 255.067 115.618 256.506 117.04 256.894L97.3876 57.812ZM97.3876 57.812C97.3307 57.8046 97.2777 57.8033 97.2128 57.8211C97.1465 57.8394 97.0371 57.8864 96.8873 58.0205L96.8817 58.0254C96.2669 58.5593 95.6573 59.6858 95.0901 61.4435C94.5304 63.178 94.0367 65.4451 93.6021 68.1679C92.7333 73.6116 92.11 80.818 91.6528 89.1025C90.7387 105.669 90.4918 126.489 90.2603 146.021L90.2601 146.04C90.0162 166.625 89.7638 187.927 88.7891 203.751C88.0588 215.615 87.0311 222.545 85.8736 226.596C84.7211 230.629 83.3906 231.976 81.9218 232.351L81.9216 232.351C80.95 232.598 79.9888 232.386 79.1657 231.766L97.3876 57.812ZM50.4595 180.637C49.801 180.666 49.0593 180.518 48.2748 179.932C47.5066 179.359 46.7219 178.385 45.9177 176.812C44.3119 173.67 42.5573 167.992 40.7498 157.857C38.8472 147.189 37.7661 136.351 37.722 135.908L37.7206 135.895L37.7205 135.894C37.6447 135.122 38.2071 134.439 38.9762 134.364L38.9764 134.364C39.744 134.29 40.4259 134.854 40.5019 135.621L50.4595 180.637ZM50.4595 180.637C50.8199 180.622 51.1614 180.509 51.4667 180.265M50.4595 180.637L51.4667 180.265M172.221 46.7822L172.499 46.3663M172.221 46.7822L172.499 46.3663C172.499 46.3663 172.499 46.3663 172.499 46.3663M172.221 46.7822L172.499 46.3663M64.4181 97.7447L64.4184 97.745C64.9134 98.1754 65.4176 99.0414 65.9015 100.381C66.3789 101.702 66.8134 103.417 67.2085 105.47C67.9984 109.576 68.6205 114.979 69.1269 121.178C70.1395 133.574 70.6849 149.092 71.1967 163.657C71.8711 182.85 72.5263 198.829 73.6581 210.495C74.2238 216.327 74.9104 221.1 75.7834 224.667C76.2199 226.45 76.7065 227.947 77.2555 229.129C77.8014 230.305 78.4276 231.211 79.1655 231.766L64.4181 97.7447ZM64.4181 97.7447C64.285 97.6288 64.1929 97.5882 64.1421 97.5727M64.4181 97.7447L64.1421 97.5727M64.1421 97.5727C64.0945 97.5582 64.0601 97.5586 64.0248 97.5624M64.1421 97.5727L64.0248 97.5624M64.0248 97.5624C63.3155 97.6398 62.597 98.1445 61.8819 99.1822M64.0248 97.5624L61.8819 99.1822M61.8819 99.1822C61.1709 100.214 60.5165 101.698 59.9198 103.566M61.8819 99.1822L59.9198 103.566M59.9198 103.566C58.7279 107.298 57.8029 112.443 57.0729 118.256M59.9198 103.566L57.0729 118.256M57.0729 118.256C55.6137 129.875 54.9464 144.052 54.4463 154.679M57.0729 118.256L54.4463 154.679M54.4463 154.679C53.9551 165.119 53.6054 171.492 53.1118 175.264M54.4463 154.679L53.1118 175.264M53.1118 175.264C52.8661 177.142 52.5787 178.431 52.1929 179.266M53.1118 175.264L52.1929 179.266M52.1929 179.266C51.9975 179.69 51.7628 180.028 51.4667 180.265M52.1929 179.266L51.4667 180.265M119.106 256.471C118.491 256.935 117.768 257.093 117.04 256.894L150.647 255.617L150.348 256.018C150.348 256.018 150.348 256.018 150.348 256.018C149.468 255.359 148.738 254.137 148.107 252.483C147.47 250.813 146.906 248.63 146.403 245.964C145.395 240.63 144.615 233.297 143.982 224.131C142.717 205.796 142.04 180.055 141.333 148.144C140.756 122.014 140.158 95.0098 138.865 74.653C137.987 60.8266 136.907 52.235 135.821 47.0039C135.277 44.3868 134.736 42.6316 134.228 41.4895C133.735 40.3792 133.309 39.9326 133.022 39.7804C132.756 39.9794 132.367 40.508 131.926 41.7161C131.469 42.967 130.987 44.8575 130.508 47.6407C129.551 53.2042 128.615 62.2656 127.889 76.7593C126.826 97.9697 126.418 125.698 126.024 152.527L126.024 152.529C125.57 183.337 125.118 208.207 124.175 225.881C123.704 234.716 123.109 241.769 122.327 246.871C121.936 249.421 121.497 251.5 120.997 253.077C120.505 254.63 119.928 255.787 119.206 256.392L119.207 256.392L119.196 256.401L119.116 256.464L119.116 256.464L119.106 256.471ZM117.452 254.213C117.451 254.214 117.45 254.214 117.45 254.214L117.452 254.213Z" fill="white"/>
<path d="M186.732 239.672L186.733 239.672C187.197 239.456 187.637 239.169 188.058 238.816C188.058 238.816 188.058 238.816 188.058 238.816M186.732 239.672L188.058 238.816M186.732 239.672C185.431 240.275 184.112 240.222 182.968 239.472L183.241 239.053M186.732 239.672L183.241 239.053M188.058 238.816C189.297 237.778 190.365 236.163 191.299 234.098C192.236 232.027 193.053 229.467 193.77 226.502C195.204 220.571 196.251 212.965 197.042 204.285C198.623 186.923 199.183 165.193 199.734 143.835L199.735 143.792C200.161 127.273 200.563 111.692 201.451 99.8901C202.039 92.0609 202.768 87.1416 203.501 84.1034C203.867 82.5835 204.229 81.5528 204.566 80.8702C204.907 80.1771 205.195 79.8989 205.376 79.7991L205.378 79.7983C205.399 79.7867 205.408 79.7838 205.41 79.7832C205.41 79.783 205.411 79.7826 205.415 79.7828C205.425 79.7832 205.492 79.7884 205.641 79.8775L205.642 79.8777C206.472 80.3715 207.27 81.3911 208.011 82.9526C208.748 84.5026 209.402 86.526 209.98 88.9453C211.137 93.7825 211.977 100.13 212.598 107.275C213.84 121.562 214.202 138.955 214.508 153.655L215.007 153.644M188.058 238.816L215.007 153.644M215.007 153.644L214.508 153.655C214.761 165.828 214.997 175.703 215.473 182.957C215.711 186.583 216.011 189.568 216.405 191.864C216.795 194.134 217.291 195.816 217.972 196.764C218.586 197.617 219.252 198.056 219.893 198.231C220.527 198.405 221.08 198.305 221.448 198.18L221.449 198.18C222.449 197.839 223.334 196.816 224.128 195.457C224.938 194.072 225.717 192.226 226.456 190.071C227.936 185.757 229.284 180.127 230.415 174.274C232.676 162.577 234.09 149.884 233.936 144.873C233.912 144.1 233.269 143.492 232.498 143.514C231.724 143.535 231.118 144.183 231.142 144.956C231.33 151.043 229.748 163.372 227.54 174.399C226.437 179.907 225.182 185.067 223.922 188.94C223.291 190.878 222.665 192.477 222.063 193.632C221.762 194.209 221.474 194.661 221.205 194.985C220.955 195.286 220.748 195.442 220.593 195.508C220.54 195.475 220.42 195.379 220.238 195.126C220.016 194.817 219.785 194.259 219.564 193.423C219.346 192.601 219.15 191.556 218.974 190.311C218.621 187.823 218.351 184.577 218.138 180.793C217.711 173.227 217.509 163.558 217.302 153.6L217.302 153.591C216.957 137.042 216.589 119.364 215.241 105.188C214.566 98.1005 213.645 91.8664 212.352 87.0772C211.705 84.6827 210.961 82.6325 210.098 81.0114C209.239 79.3956 208.241 78.1659 207.065 77.467L206.81 77.8976L207.065 77.4669C205.785 76.7068 204.701 76.97 204.025 77.3437L204.024 77.3441C203.278 77.758 202.666 78.5389 202.147 79.5766C201.625 80.6221 201.17 81.9823 200.769 83.63C199.967 86.9265 199.36 91.4518 198.879 97.0905C197.915 108.372 197.445 124.199 196.94 143.759C196.426 163.693 195.849 186.04 194.231 203.948C193.422 212.903 192.354 220.727 190.91 226.574C190.188 229.499 189.376 231.908 188.467 233.711C187.551 235.528 186.572 236.655 185.555 237.128C185.236 237.276 185.021 237.294 184.878 237.278C184.734 237.261 184.616 237.206 184.496 237.127C183.863 236.712 183.24 235.744 182.674 234.136C182.117 232.553 181.648 230.444 181.257 227.872C180.476 222.732 180.022 215.818 179.787 207.738C179.317 191.582 179.726 170.832 180.127 150.411L180.128 150.408L180.128 150.388C180.621 125.368 181.1 101.02 180.29 82.143C179.885 72.7035 179.157 64.6106 177.941 58.4765C177.333 55.4099 176.599 52.8149 175.715 50.7792C174.834 48.7521 173.78 47.2266 172.499 46.3663M215.007 153.644L40.5021 135.624L40.5032 135.634C40.5464 136.068 41.6185 146.814 43.5022 157.376C45.1092 166.384 46.6124 171.49 47.8338 174.364C48.4444 175.801 48.976 176.66 49.3993 177.165C49.5775 177.378 49.7324 177.524 49.8617 177.623C49.9043 177.478 49.9484 177.305 49.9931 177.102C50.0992 176.62 50.2009 176.008 50.2983 175.28C50.493 173.824 50.6665 171.935 50.8255 169.759C51.1435 165.406 51.401 159.935 51.6546 154.543C52.4053 138.59 53.2588 123.961 54.9553 113.206C55.8029 107.833 56.8661 103.39 58.2493 100.224C59.6186 97.0891 61.3812 95.0291 63.7221 94.7765C64.6352 94.6776 65.5116 94.9882 66.2479 95.6282L65.9207 96.0065L66.248 95.6283C67.0062 96.2876 67.6455 97.3613 68.2008 98.7327C68.7601 100.114 69.2533 101.847 69.6927 103.875C70.5714 107.931 71.2458 113.224 71.7867 119.364C72.8686 131.646 73.4216 147.389 73.9895 163.561L73.9901 163.577C74.5067 178.271 75.0571 193.925 76.0831 206.364C76.5964 212.586 77.2275 217.988 78.0295 222.056C78.4307 224.09 78.8717 225.775 79.3557 227.056C79.8476 228.357 80.355 229.16 80.841 229.526C80.9432 229.603 81.0119 229.631 81.0586 229.642C81.1008 229.652 81.1513 229.655 81.2298 229.635C81.3721 229.598 81.6839 229.428 82.0932 228.716C82.4978 228.012 82.9571 226.847 83.4262 224.967C84.3634 221.211 85.3146 214.704 85.9997 203.575L86.4981 203.605L85.9997 203.575C86.9692 187.83 87.2214 166.585 87.4654 146.018L87.4658 145.984C87.722 124.355 87.9713 103.307 88.9594 86.9706C89.4533 78.8035 90.1328 71.7973 91.0937 66.4771C91.574 63.8176 92.1272 61.5647 92.7689 59.7925C93.4048 58.0362 94.1489 56.6898 95.0484 55.9074C95.8324 55.2111 96.7798 54.9046 97.7503 55.0332C98.9686 55.1947 99.9806 56.0976 100.833 57.4898C101.691 58.8902 102.444 60.8751 103.117 63.39C104.464 68.4251 105.522 75.7116 106.397 85.0191C108.146 103.641 109.168 130.463 110.261 163.791C111.03 187.266 111.756 209.423 113.001 226.351C113.912 238.724 114.959 245.699 115.888 249.604C116.354 251.558 116.784 252.719 117.139 253.394C117.326 253.751 117.48 253.949 117.589 254.059C117.688 253.923 117.829 253.686 118 253.281C118.441 252.234 119.041 250.157 119.634 246.091L119.634 246.091C120.406 240.805 121.028 233.256 121.533 223C122.473 203.876 122.84 178.919 123.229 152.484L123.229 152.484C123.72 119.091 124.246 91.3677 125.4 71.5117C125.977 61.5855 126.712 53.6092 127.681 47.8678C128.165 44.9986 128.711 42.6692 129.333 40.927C129.944 39.214 130.663 37.9602 131.566 37.3832L131.567 37.3825C132.357 36.8807 133.278 36.8196 134.131 37.2076C135.158 37.6741 135.992 38.7934 136.7 40.3613C137.417 41.9489 138.047 44.0934 138.608 46.7552C139.73 52.0819 140.593 59.5689 141.287 69.0191C142.674 87.9244 143.39 114.769 144.128 148.085C144.655 171.924 145.218 197.34 146.378 217.343C146.958 227.346 147.687 235.982 148.634 242.385C149.107 245.588 149.633 248.217 150.217 250.172C150.509 251.15 150.812 251.947 151.123 252.558C151.438 253.177 151.742 253.567 152.019 253.774L152.019 253.774C152.06 253.805 152.089 253.821 152.107 253.829C152.111 253.831 152.114 253.832 152.117 253.834C152.121 253.835 152.124 253.836 152.126 253.837C152.128 253.837 152.129 253.838 152.13 253.838C152.13 253.838 152.13 253.838 152.131 253.838C152.133 253.838 152.14 253.837 152.155 253.833C152.327 253.785 152.687 253.565 153.151 252.7C153.609 251.846 154.124 250.443 154.65 248.192C155.701 243.694 156.773 235.913 157.56 222.619C158.67 203.871 159.018 178.56 159.353 154.064C159.782 122.803 160.27 96.8367 161.556 78.211C162.199 68.9003 163.043 61.4034 164.183 55.9888C164.753 53.2827 165.401 51.0761 166.146 49.4161C166.883 47.7723 167.75 46.5846 168.805 46.0313C168.805 46.0312 168.806 46.0311 168.806 46.031L169.037 46.4746C169.735 46.1075 170.854 45.8636 172.221 46.7822M183.241 239.053L182.968 239.472C182.03 238.857 181.262 237.784 180.62 236.351C179.974 234.912 179.435 233.061 178.982 230.826C178.078 226.355 177.51 220.276 177.181 212.72C176.523 197.606 176.819 176.496 177.334 150.349C177.778 127.759 178.252 103.683 177.553 84.541C177.203 74.9681 176.56 66.6478 175.478 60.3723C174.937 57.2335 174.289 54.6245 173.521 52.6329C172.746 50.6248 171.878 49.3203 170.946 48.6938L171.224 48.2779L170.946 48.6938C170.657 48.5001 170.473 48.4554 170.367 48.4493C170.268 48.4436 170.191 48.4685 170.104 48.514C169.748 48.7009 169.259 49.2087 168.71 50.3955C168.167 51.5681 167.596 53.3364 167.033 55.9371C165.906 61.1364 164.825 69.5843 164.026 83.0681C162.85 102.881 162.493 128.914 162.148 154.106L162.147 154.155C161.811 178.647 161.464 203.984 160.35 222.788L159.852 222.759L160.35 222.788C159.518 236.835 158.387 245.024 157.131 249.8C155.884 254.542 154.465 256.105 152.894 256.536L152.894 256.536L183.241 239.053ZM97.3876 57.812C97.5846 57.838 97.9865 58.0182 98.5228 58.8917C99.053 59.7552 99.6615 61.2139 100.301 63.6037C101.578 68.3783 102.947 76.7517 104.115 91.2154C105.748 111.432 106.622 138.086 107.467 163.879C108.236 187.366 108.964 209.565 110.215 226.554C111.143 239.173 112.195 246.532 113.308 250.821C114.409 255.067 115.618 256.506 117.04 256.894L97.3876 57.812ZM97.3876 57.812C97.3307 57.8046 97.2777 57.8033 97.2128 57.8211C97.1465 57.8394 97.0371 57.8864 96.8873 58.0205L96.8817 58.0254C96.2669 58.5593 95.6573 59.6858 95.0901 61.4435C94.5304 63.178 94.0367 65.4451 93.6021 68.1679C92.7333 73.6116 92.11 80.818 91.6528 89.1025C90.7387 105.669 90.4918 126.489 90.2603 146.021L90.2601 146.04C90.0162 166.625 89.7638 187.927 88.7891 203.751C88.0588 215.615 87.0311 222.545 85.8736 226.596C84.7211 230.629 83.3906 231.976 81.9218 232.351L81.9216 232.351C80.95 232.598 79.9888 232.386 79.1657 231.766L97.3876 57.812ZM50.4595 180.637C49.801 180.666 49.0593 180.518 48.2748 179.932C47.5066 179.359 46.7219 178.385 45.9177 176.812C44.3119 173.67 42.5573 167.992 40.7498 157.857C38.8472 147.189 37.7661 136.351 37.722 135.908L37.7206 135.895L37.7205 135.894C37.6447 135.122 38.2071 134.439 38.9762 134.364L38.9764 134.364C39.744 134.29 40.4259 134.854 40.5019 135.621L50.4595 180.637ZM50.4595 180.637C50.8199 180.622 51.1614 180.509 51.4667 180.265M50.4595 180.637L51.4667 180.265M172.221 46.7822L172.499 46.3663M172.221 46.7822L172.499 46.3663C172.499 46.3663 172.499 46.3663 172.499 46.3663M172.221 46.7822L172.499 46.3663M64.4181 97.7447L64.4184 97.745C64.9134 98.1754 65.4176 99.0414 65.9015 100.381C66.3789 101.702 66.8134 103.417 67.2085 105.47C67.9984 109.576 68.6205 114.979 69.1269 121.178C70.1395 133.574 70.6849 149.092 71.1967 163.657C71.8711 182.85 72.5263 198.829 73.6581 210.495C74.2238 216.327 74.9104 221.1 75.7834 224.667C76.2199 226.45 76.7065 227.947 77.2555 229.129C77.8014 230.305 78.4276 231.211 79.1655 231.766L64.4181 97.7447ZM64.4181 97.7447C64.285 97.6288 64.1929 97.5882 64.1421 97.5727M64.4181 97.7447L64.1421 97.5727M64.1421 97.5727C64.0945 97.5582 64.0601 97.5586 64.0248 97.5624M64.1421 97.5727L64.0248 97.5624M64.0248 97.5624C63.3155 97.6398 62.597 98.1445 61.8819 99.1822M64.0248 97.5624L61.8819 99.1822M61.8819 99.1822C61.1709 100.214 60.5165 101.698 59.9198 103.566M61.8819 99.1822L59.9198 103.566M59.9198 103.566C58.7279 107.298 57.8029 112.443 57.0729 118.256M59.9198 103.566L57.0729 118.256M57.0729 118.256C55.6137 129.875 54.9464 144.052 54.4463 154.679M57.0729 118.256L54.4463 154.679M54.4463 154.679C53.9551 165.119 53.6054 171.492 53.1118 175.264M54.4463 154.679L53.1118 175.264M53.1118 175.264C52.8661 177.142 52.5787 178.431 52.1929 179.266M53.1118 175.264L52.1929 179.266M52.1929 179.266C51.9975 179.69 51.7628 180.028 51.4667 180.265M52.1929 179.266L51.4667 180.265M119.106 256.471C118.491 256.935 117.768 257.093 117.04 256.894L150.647 255.617L150.348 256.018C150.348 256.018 150.348 256.018 150.348 256.018C149.468 255.359 148.738 254.137 148.107 252.483C147.47 250.813 146.906 248.63 146.403 245.964C145.395 240.63 144.615 233.297 143.982 224.131C142.717 205.796 142.04 180.055 141.333 148.144C140.756 122.014 140.158 95.0098 138.865 74.653C137.987 60.8266 136.907 52.235 135.821 47.0039C135.277 44.3868 134.736 42.6316 134.228 41.4895C133.735 40.3792 133.309 39.9326 133.022 39.7804C132.756 39.9794 132.367 40.508 131.926 41.7161C131.469 42.967 130.987 44.8575 130.508 47.6407C129.551 53.2042 128.615 62.2656 127.889 76.7593C126.826 97.9697 126.418 125.698 126.024 152.527L126.024 152.529C125.57 183.337 125.118 208.207 124.175 225.881C123.704 234.716 123.109 241.769 122.327 246.871C121.936 249.421 121.497 251.5 120.997 253.077C120.505 254.63 119.928 255.787 119.206 256.392L119.207 256.392L119.196 256.401L119.116 256.464L119.116 256.464L119.106 256.471ZM117.452 254.213C117.451 254.214 117.45 254.214 117.45 254.214L117.452 254.213Z" fill="#F2575D"/>
<path d="M186.732 239.672L186.733 239.672C187.197 239.456 187.637 239.169 188.058 238.816C188.058 238.816 188.058 238.816 188.058 238.816M186.732 239.672L188.058 238.816M186.732 239.672C185.431 240.275 184.112 240.222 182.968 239.472L183.241 239.053M186.732 239.672L183.241 239.053M188.058 238.816C189.297 237.778 190.365 236.163 191.299 234.098C192.236 232.027 193.053 229.467 193.77 226.502C195.204 220.571 196.251 212.965 197.042 204.285C198.623 186.923 199.183 165.193 199.734 143.835L199.735 143.792C200.161 127.273 200.563 111.692 201.451 99.8901C202.039 92.0609 202.768 87.1416 203.501 84.1034C203.867 82.5835 204.229 81.5528 204.566 80.8702C204.907 80.1771 205.195 79.8989 205.376 79.7991L205.378 79.7983C205.399 79.7867 205.408 79.7838 205.41 79.7832C205.41 79.783 205.411 79.7826 205.415 79.7828C205.425 79.7832 205.492 79.7884 205.641 79.8775L205.642 79.8777C206.472 80.3715 207.27 81.3911 208.011 82.9526C208.748 84.5026 209.402 86.526 209.98 88.9453C211.137 93.7825 211.977 100.13 212.598 107.275C213.84 121.562 214.202 138.955 214.508 153.655L215.007 153.644M188.058 238.816L215.007 153.644M215.007 153.644L214.508 153.655C214.761 165.828 214.997 175.703 215.473 182.957C215.711 186.583 216.011 189.568 216.405 191.864C216.795 194.134 217.291 195.816 217.972 196.764C218.586 197.617 219.252 198.056 219.893 198.231C220.527 198.405 221.08 198.305 221.448 198.18L221.449 198.18C222.449 197.839 223.334 196.816 224.128 195.457C224.938 194.072 225.717 192.226 226.456 190.071C227.936 185.757 229.284 180.127 230.415 174.274C232.676 162.577 234.09 149.884 233.936 144.873C233.912 144.1 233.269 143.492 232.498 143.514C231.724 143.535 231.118 144.183 231.142 144.956C231.33 151.043 229.748 163.372 227.54 174.399C226.437 179.907 225.182 185.067 223.922 188.94C223.291 190.878 222.665 192.477 222.063 193.632C221.762 194.209 221.474 194.661 221.205 194.985C220.955 195.286 220.748 195.442 220.593 195.508C220.54 195.475 220.42 195.379 220.238 195.126C220.016 194.817 219.785 194.259 219.564 193.423C219.346 192.601 219.15 191.556 218.974 190.311C218.621 187.823 218.351 184.577 218.138 180.793C217.711 173.227 217.509 163.558 217.302 153.6L217.302 153.591C216.957 137.042 216.589 119.364 215.241 105.188C214.566 98.1005 213.645 91.8664 212.352 87.0772C211.705 84.6827 210.961 82.6325 210.098 81.0114C209.239 79.3956 208.241 78.1659 207.065 77.467L206.81 77.8976L207.065 77.4669C205.785 76.7068 204.701 76.97 204.025 77.3437L204.024 77.3441C203.278 77.758 202.666 78.5389 202.147 79.5766C201.625 80.6221 201.17 81.9823 200.769 83.63C199.967 86.9265 199.36 91.4518 198.879 97.0905C197.915 108.372 197.445 124.199 196.94 143.759C196.426 163.693 195.849 186.04 194.231 203.948C193.422 212.903 192.354 220.727 190.91 226.574C190.188 229.499 189.376 231.908 188.467 233.711C187.551 235.528 186.572 236.655 185.555 237.128C185.236 237.276 185.021 237.294 184.878 237.278C184.734 237.261 184.616 237.206 184.496 237.127C183.863 236.712 183.24 235.744 182.674 234.136C182.117 232.553 181.648 230.444 181.257 227.872C180.476 222.732 180.022 215.818 179.787 207.738C179.317 191.582 179.726 170.832 180.127 150.411L180.128 150.408L180.128 150.388C180.621 125.368 181.1 101.02 180.29 82.143C179.885 72.7035 179.157 64.6106 177.941 58.4765C177.333 55.4099 176.599 52.8149 175.715 50.7792C174.834 48.7521 173.78 47.2266 172.499 46.3663M215.007 153.644L40.5021 135.624L40.5032 135.634C40.5464 136.068 41.6185 146.814 43.5022 157.376C45.1092 166.384 46.6124 171.49 47.8338 174.364C48.4444 175.801 48.976 176.66 49.3993 177.165C49.5775 177.378 49.7324 177.524 49.8617 177.623C49.9043 177.478 49.9484 177.305 49.9931 177.102C50.0992 176.62 50.2009 176.008 50.2983 175.28C50.493 173.824 50.6665 171.935 50.8255 169.759C51.1435 165.406 51.401 159.935 51.6546 154.543C52.4053 138.59 53.2588 123.961 54.9553 113.206C55.8029 107.833 56.8661 103.39 58.2493 100.224C59.6186 97.0891 61.3812 95.0291 63.7221 94.7765C64.6352 94.6776 65.5116 94.9882 66.2479 95.6282L65.9207 96.0065L66.248 95.6283C67.0062 96.2876 67.6455 97.3613 68.2008 98.7327C68.7601 100.114 69.2533 101.847 69.6927 103.875C70.5714 107.931 71.2458 113.224 71.7867 119.364C72.8686 131.646 73.4216 147.389 73.9895 163.561L73.9901 163.577C74.5067 178.271 75.0571 193.925 76.0831 206.364C76.5964 212.586 77.2275 217.988 78.0295 222.056C78.4307 224.09 78.8717 225.775 79.3557 227.056C79.8476 228.357 80.355 229.16 80.841 229.526C80.9432 229.603 81.0119 229.631 81.0586 229.642C81.1008 229.652 81.1513 229.655 81.2298 229.635C81.3721 229.598 81.6839 229.428 82.0932 228.716C82.4978 228.012 82.9571 226.847 83.4262 224.967C84.3634 221.211 85.3146 214.704 85.9997 203.575L86.4981 203.605L85.9997 203.575C86.9692 187.83 87.2214 166.585 87.4654 146.018L87.4658 145.984C87.722 124.355 87.9713 103.307 88.9594 86.9706C89.4533 78.8035 90.1328 71.7973 91.0937 66.4771C91.574 63.8176 92.1272 61.5647 92.7689 59.7925C93.4048 58.0362 94.1489 56.6898 95.0484 55.9074C95.8324 55.2111 96.7798 54.9046 97.7503 55.0332C98.9686 55.1947 99.9806 56.0976 100.833 57.4898C101.691 58.8902 102.444 60.8751 103.117 63.39C104.464 68.4251 105.522 75.7116 106.397 85.0191C108.146 103.641 109.168 130.463 110.261 163.791C111.03 187.266 111.756 209.423 113.001 226.351C113.912 238.724 114.959 245.699 115.888 249.604C116.354 251.558 116.784 252.719 117.139 253.394C117.326 253.751 117.48 253.949 117.589 254.059C117.688 253.923 117.829 253.686 118 253.281C118.441 252.234 119.041 250.157 119.634 246.091L119.634 246.091C120.406 240.805 121.028 233.256 121.533 223C122.473 203.876 122.84 178.919 123.229 152.484L123.229 152.484C123.72 119.091 124.246 91.3677 125.4 71.5117C125.977 61.5855 126.712 53.6092 127.681 47.8678C128.165 44.9986 128.711 42.6692 129.333 40.927C129.944 39.214 130.663 37.9602 131.566 37.3832L131.567 37.3825C132.357 36.8807 133.278 36.8196 134.131 37.2076C135.158 37.6741 135.992 38.7934 136.7 40.3613C137.417 41.9489 138.047 44.0934 138.608 46.7552C139.73 52.0819 140.593 59.5689 141.287 69.0191C142.674 87.9244 143.39 114.769 144.128 148.085C144.655 171.924 145.218 197.34 146.378 217.343C146.958 227.346 147.687 235.982 148.634 242.385C149.107 245.588 149.633 248.217 150.217 250.172C150.509 251.15 150.812 251.947 151.123 252.558C151.438 253.177 151.742 253.567 152.019 253.774L152.019 253.774C152.06 253.805 152.089 253.821 152.107 253.829C152.111 253.831 152.114 253.832 152.117 253.834C152.121 253.835 152.124 253.836 152.126 253.837C152.128 253.837 152.129 253.838 152.13 253.838C152.13 253.838 152.13 253.838 152.131 253.838C152.133 253.838 152.14 253.837 152.155 253.833C152.327 253.785 152.687 253.565 153.151 252.7C153.609 251.846 154.124 250.443 154.65 248.192C155.701 243.694 156.773 235.913 157.56 222.619C158.67 203.871 159.018 178.56 159.353 154.064C159.782 122.803 160.27 96.8367 161.556 78.211C162.199 68.9003 163.043 61.4034 164.183 55.9888C164.753 53.2827 165.401 51.0761 166.146 49.4161C166.883 47.7723 167.75 46.5846 168.805 46.0313C168.805 46.0312 168.806 46.0311 168.806 46.031L169.037 46.4746C169.735 46.1075 170.854 45.8636 172.221 46.7822M183.241 239.053L182.968 239.472C182.03 238.857 181.262 237.784 180.62 236.351C179.974 234.912 179.435 233.061 178.982 230.826C178.078 226.355 177.51 220.276 177.181 212.72C176.523 197.606 176.819 176.496 177.334 150.349C177.778 127.759 178.252 103.683 177.553 84.541C177.203 74.9681 176.56 66.6478 175.478 60.3723C174.937 57.2335 174.289 54.6245 173.521 52.6329C172.746 50.6248 171.878 49.3203 170.946 48.6938L171.224 48.2779L170.946 48.6938C170.657 48.5001 170.473 48.4554 170.367 48.4493C170.268 48.4436 170.191 48.4685 170.104 48.514C169.748 48.7009 169.259 49.2087 168.71 50.3955C168.167 51.5681 167.596 53.3364 167.033 55.9371C165.906 61.1364 164.825 69.5843 164.026 83.0681C162.85 102.881 162.493 128.914 162.148 154.106L162.147 154.155C161.811 178.647 161.464 203.984 160.35 222.788L159.852 222.759L160.35 222.788C159.518 236.835 158.387 245.024 157.131 249.8C155.884 254.542 154.465 256.105 152.894 256.536L152.894 256.536L183.241 239.053ZM97.3876 57.812C97.5846 57.838 97.9865 58.0182 98.5228 58.8917C99.053 59.7552 99.6615 61.2139 100.301 63.6037C101.578 68.3783 102.947 76.7517 104.115 91.2154C105.748 111.432 106.622 138.086 107.467 163.879C108.236 187.366 108.964 209.565 110.215 226.554C111.143 239.173 112.195 246.532 113.308 250.821C114.409 255.067 115.618 256.506 117.04 256.894L97.3876 57.812ZM97.3876 57.812C97.3307 57.8046 97.2777 57.8033 97.2128 57.8211C97.1465 57.8394 97.0371 57.8864 96.8873 58.0205L96.8817 58.0254C96.2669 58.5593 95.6573 59.6858 95.0901 61.4435C94.5304 63.178 94.0367 65.4451 93.6021 68.1679C92.7333 73.6116 92.11 80.818 91.6528 89.1025C90.7387 105.669 90.4918 126.489 90.2603 146.021L90.2601 146.04C90.0162 166.625 89.7638 187.927 88.7891 203.751C88.0588 215.615 87.0311 222.545 85.8736 226.596C84.7211 230.629 83.3906 231.976 81.9218 232.351L81.9216 232.351C80.95 232.598 79.9888 232.386 79.1657 231.766L97.3876 57.812ZM50.4595 180.637C49.801 180.666 49.0593 180.518 48.2748 179.932C47.5066 179.359 46.7219 178.385 45.9177 176.812C44.3119 173.67 42.5573 167.992 40.7498 157.857C38.8472 147.189 37.7661 136.351 37.722 135.908L37.7206 135.895L37.7205 135.894C37.6447 135.122 38.2071 134.439 38.9762 134.364L38.9764 134.364C39.744 134.29 40.4259 134.854 40.5019 135.621L50.4595 180.637ZM50.4595 180.637C50.8199 180.622 51.1614 180.509 51.4667 180.265M50.4595 180.637L51.4667 180.265M172.221 46.7822L172.499 46.3663M172.221 46.7822L172.499 46.3663C172.499 46.3663 172.499 46.3663 172.499 46.3663M172.221 46.7822L172.499 46.3663M64.4181 97.7447L64.4184 97.745C64.9134 98.1754 65.4176 99.0414 65.9015 100.381C66.3789 101.702 66.8134 103.417 67.2085 105.47C67.9984 109.576 68.6205 114.979 69.1269 121.178C70.1395 133.574 70.6849 149.092 71.1967 163.657C71.8711 182.85 72.5263 198.829 73.6581 210.495C74.2238 216.327 74.9104 221.1 75.7834 224.667C76.2199 226.45 76.7065 227.947 77.2555 229.129C77.8014 230.305 78.4276 231.211 79.1655 231.766L64.4181 97.7447ZM64.4181 97.7447C64.285 97.6288 64.1929 97.5882 64.1421 97.5727M64.4181 97.7447L64.1421 97.5727M64.1421 97.5727C64.0945 97.5582 64.0601 97.5586 64.0248 97.5624M64.1421 97.5727L64.0248 97.5624M64.0248 97.5624C63.3155 97.6398 62.597 98.1445 61.8819 99.1822M64.0248 97.5624L61.8819 99.1822M61.8819 99.1822C61.1709 100.214 60.5165 101.698 59.9198 103.566M61.8819 99.1822L59.9198 103.566M59.9198 103.566C58.7279 107.298 57.8029 112.443 57.0729 118.256M59.9198 103.566L57.0729 118.256M57.0729 118.256C55.6137 129.875 54.9464 144.052 54.4463 154.679M57.0729 118.256L54.4463 154.679M54.4463 154.679C53.9551 165.119 53.6054 171.492 53.1118 175.264M54.4463 154.679L53.1118 175.264M53.1118 175.264C52.8661 177.142 52.5787 178.431 52.1929 179.266M53.1118 175.264L52.1929 179.266M52.1929 179.266C51.9975 179.69 51.7628 180.028 51.4667 180.265M52.1929 179.266L51.4667 180.265M119.106 256.471C118.491 256.935 117.768 257.093 117.04 256.894L150.647 255.617L150.348 256.018C150.348 256.018 150.348 256.018 150.348 256.018C149.468 255.359 148.738 254.137 148.107 252.483C147.47 250.813 146.906 248.63 146.403 245.964C145.395 240.63 144.615 233.297 143.982 224.131C142.717 205.796 142.04 180.055 141.333 148.144C140.756 122.014 140.158 95.0098 138.865 74.653C137.987 60.8266 136.907 52.235 135.821 47.0039C135.277 44.3868 134.736 42.6316 134.228 41.4895C133.735 40.3792 133.309 39.9326 133.022 39.7804C132.756 39.9794 132.367 40.508 131.926 41.7161C131.469 42.967 130.987 44.8575 130.508 47.6407C129.551 53.2042 128.615 62.2656 127.889 76.7593C126.826 97.9697 126.418 125.698 126.024 152.527L126.024 152.529C125.57 183.337 125.118 208.207 124.175 225.881C123.704 234.716 123.109 241.769 122.327 246.871C121.936 249.421 121.497 251.5 120.997 253.077C120.505 254.63 119.928 255.787 119.206 256.392L119.207 256.392L119.196 256.401L119.116 256.464L119.116 256.464L119.106 256.471ZM117.452 254.213C117.451 254.214 117.45 254.214 117.45 254.214L117.452 254.213Z" stroke="white"/>
</svg>

