<svg width="40" height="40" viewBox="0 0 40 40" fill="none" xmlns="http://www.w3.org/2000/svg">
<path d="M19.0626 27.684L12.2825 20.7313C12.1798 20.626 12.1068 20.5119 12.0637 20.389C12.0212 20.2661 12 20.1344 12 19.9939C12 19.8535 12.0212 19.7218 12.0637 19.5989C12.1068 19.476 12.1798 19.3619 12.2825 19.2565L19.0626 12.3039C19.2509 12.1107 19.4862 12.0096 19.7683 12.0005C20.0512 11.9921 20.2953 12.0932 20.5008 12.3039C20.7063 12.497 20.8134 12.7382 20.8223 13.0276C20.8306 13.3176 20.7319 13.568 20.5265 13.7787L15.4928 18.9405H26.9727C27.2638 18.9405 27.5079 19.0413 27.7052 19.2428C27.9017 19.4451 28 19.6955 28 19.9939C28 20.2924 27.9017 20.5424 27.7052 20.744C27.5079 20.9462 27.2638 21.0474 26.9727 21.0474H15.4928L20.5265 26.2092C20.7148 26.4023 20.8134 26.6481 20.8223 26.9466C20.8306 27.245 20.7319 27.4908 20.5265 27.684C20.3381 27.8947 20.0984 28 19.8074 28C19.5163 28 19.2681 27.8947 19.0626 27.684Z" fill="#3B7091"/>
</svg>
