<svg width="40" height="40" viewBox="0 0 40 40" fill="none" xmlns="http://www.w3.org/2000/svg">
<path fill-rule="evenodd" clip-rule="evenodd" d="M10.2005 19.4826C9.64547 18.9416 9.34621 18.2179 9.57808 17.5042C9.81003 16.7904 10.4775 16.3809 11.2446 16.2694L16.1272 15.5599L18.3106 11.1357C18.6536 10.4406 19.2493 9.93231 19.9998 9.93231C20.7503 9.93231 21.3461 10.4406 21.6891 11.1357L23.8727 15.5599L28.7551 16.2694C29.5222 16.3809 30.1898 16.7904 30.4217 17.5042C30.6535 18.218 30.3542 18.9416 29.7992 19.4826L26.2662 22.9264L27.1004 27.7892C27.2409 28.6083 27.0042 29.1601 26.7243 29.492C26.4063 29.8691 25.9468 30.0676 25.4533 30.0676C25.0851 30.0676 24.7183 29.9598 24.367 29.7751L19.9999 27.4792L15.6328 29.7751C15.2815 29.9598 14.9147 30.0677 14.5465 30.0677C14.053 30.0677 13.5936 29.8691 13.2756 29.4921C12.9958 29.1601 12.759 28.6084 12.8995 27.7893L13.7335 22.9264L10.2005 19.4826ZM19.4946 25.2911C19.6528 25.2079 19.8265 25.1663 19.9999 25.1663C20.1734 25.1663 20.347 25.2079 20.5052 25.2911L24.861 27.581L24.029 22.7309C23.9686 22.3786 24.0853 22.0191 24.3413 21.7697L27.8652 18.3348L22.9954 17.6271C22.6416 17.5757 22.336 17.3534 22.1778 17.0331L20 12.6203L17.8222 17.033C17.6641 17.3534 17.3583 17.5757 17.0046 17.6271L12.1346 18.3348L15.6584 21.7696C15.9144 22.0191 16.0311 22.3785 15.9708 22.7308L15.1389 27.581L19.4946 25.2911Z" fill="#3B7091"/>
</svg>
