<svg width="40" height="40" viewBox="0 0 40 40" fill="none" xmlns="http://www.w3.org/2000/svg">
<path d="M21.8753 30H18.1253C17.8753 30 17.6587 29.9167 17.4753 29.75C17.292 29.5833 17.1837 29.375 17.1503 29.125L16.8503 26.8C16.6337 26.7167 16.4297 26.6167 16.2383 26.5C16.0463 26.3833 15.8587 26.2583 15.6753 26.125L13.5003 27.025C13.267 27.1083 13.0337 27.1167 12.8003 27.05C12.567 26.9833 12.3837 26.8417 12.2503 26.625L10.4003 23.4C10.267 23.1833 10.2253 22.95 10.2753 22.7C10.3253 22.45 10.4503 22.25 10.6503 22.1L12.5253 20.675C12.5087 20.5583 12.5003 20.4457 12.5003 20.337V19.662C12.5003 19.554 12.5087 19.4417 12.5253 19.325L10.6503 17.9C10.4503 17.75 10.3253 17.55 10.2753 17.3C10.2253 17.05 10.267 16.8167 10.4003 16.6L12.2503 13.375C12.367 13.1417 12.546 12.9957 12.7873 12.937C13.0293 12.879 13.267 12.8917 13.5003 12.975L15.6753 13.875C15.8587 13.7417 16.0503 13.6167 16.2503 13.5C16.4503 13.3833 16.6503 13.2833 16.8503 13.2L17.1503 10.875C17.1837 10.625 17.292 10.4167 17.4753 10.25C17.6587 10.0833 17.8753 10 18.1253 10H21.8753C22.1253 10 22.342 10.0833 22.5253 10.25C22.7087 10.4167 22.817 10.625 22.8503 10.875L23.1503 13.2C23.367 13.2833 23.5713 13.3833 23.7633 13.5C23.9547 13.6167 24.142 13.7417 24.3253 13.875L26.5003 12.975C26.7337 12.8917 26.967 12.8833 27.2003 12.95C27.4337 13.0167 27.617 13.1583 27.7503 13.375L29.6003 16.6C29.7337 16.8167 29.7753 17.05 29.7253 17.3C29.6753 17.55 29.5503 17.75 29.3503 17.9L27.4753 19.325C27.492 19.4417 27.5003 19.554 27.5003 19.662V20.337C27.5003 20.4457 27.4837 20.5583 27.4503 20.675L29.3253 22.1C29.5253 22.25 29.6503 22.45 29.7003 22.7C29.7503 22.95 29.7087 23.1833 29.5753 23.4L27.7253 26.6C27.592 26.8167 27.4047 26.9627 27.1633 27.038C26.9213 27.1127 26.6837 27.1083 26.4503 27.025L24.3253 26.125C24.142 26.2583 23.9503 26.3833 23.7503 26.5C23.5503 26.6167 23.3503 26.7167 23.1503 26.8L22.8503 29.125C22.817 29.375 22.7087 29.5833 22.5253 29.75C22.342 29.9167 22.1253 30 21.8753 30ZM20.0503 23.5C21.017 23.5 21.842 23.1583 22.5253 22.475C23.2087 21.7917 23.5503 20.9667 23.5503 20C23.5503 19.0333 23.2087 18.2083 22.5253 17.525C21.842 16.8417 21.017 16.5 20.0503 16.5C19.067 16.5 18.2377 16.8417 17.5623 17.525C16.8877 18.2083 16.5503 19.0333 16.5503 20C16.5503 20.9667 16.8877 21.7917 17.5623 22.475C18.2377 23.1583 19.067 23.5 20.0503 23.5ZM20.0503 21.5C19.6337 21.5 19.2797 21.354 18.9883 21.062C18.6963 20.7707 18.5503 20.4167 18.5503 20C18.5503 19.5833 18.6963 19.2293 18.9883 18.938C19.2797 18.646 19.6337 18.5 20.0503 18.5C20.467 18.5 20.8213 18.646 21.1133 18.938C21.4047 19.2293 21.5503 19.5833 21.5503 20C21.5503 20.4167 21.4047 20.7707 21.1133 21.062C20.8213 21.354 20.467 21.5 20.0503 21.5ZM19.0003 28H20.9753L21.3253 25.35C21.842 25.2167 22.3213 25.0207 22.7633 24.762C23.2047 24.504 23.6087 24.1917 23.9753 23.825L26.4503 24.85L27.4253 23.15L25.2753 21.525C25.3587 21.2917 25.417 21.0457 25.4503 20.787C25.4837 20.529 25.5003 20.2667 25.5003 20C25.5003 19.7333 25.4837 19.4707 25.4503 19.212C25.417 18.954 25.3587 18.7083 25.2753 18.475L27.4253 16.85L26.4503 15.15L23.9753 16.2C23.6087 15.8167 23.2047 15.4957 22.7633 15.237C22.3213 14.979 21.842 14.7833 21.3253 14.65L21.0003 12H19.0253L18.6753 14.65C18.1587 14.7833 17.6797 14.979 17.2383 15.237C16.7963 15.4957 16.392 15.8083 16.0253 16.175L13.5503 15.15L12.5753 16.85L14.7253 18.45C14.642 18.7 14.5837 18.95 14.5503 19.2C14.517 19.45 14.5003 19.7167 14.5003 20C14.5003 20.2667 14.517 20.525 14.5503 20.775C14.5837 21.025 14.642 21.275 14.7253 21.525L12.5753 23.15L13.5503 24.85L16.0253 23.8C16.392 24.1833 16.7963 24.504 17.2383 24.762C17.6797 25.0207 18.1587 25.2167 18.6753 25.35L19.0003 28Z" fill="#3B7091"/>
</svg>
